<?xml version="1.0" encoding="UTF-8"?>
<svg width="49px" height="26px" viewBox="0 0 49 26" version="1.1" xmlns="http://www.w3.org/2000/svg" xmlns:xlink="http://www.w3.org/1999/xlink">
    <title>22EA38EF-6C13-4C69-9FCD-C0A241B55289</title>
    <g id="UI" stroke="none" stroke-width="1" fill="none" fill-rule="evenodd">
        <g id="Desktop-Cockpit" transform="translate(-519.000000, -260.000000)" stroke="#6D6D6D" stroke-width="2">
            <g id="Group" transform="translate(447.000000, 155.000000)">
                <g id="Group-6-Copy" transform="translate(96.870968, 117.983661) scale(-1, 1) translate(-96.870968, -117.983661) translate(72.870968, 105.516129)">
                    <path d="M11.5188492,6.09822202 C12.2472169,5.85543279 13.0682055,5.89050646 13.8091733,6.26099034 C14.3897555,6.55128144 14.8605229,7.02204892 15.150814,7.60263112 L15.150814,7.60263112 L21.1462106,19.5934241 C21.5166944,20.3343919 21.5517681,21.1553805 21.3089789,21.8837482 C21.0661896,22.6121159 20.5455375,23.2478626 19.8045698,23.6183465 C19.3880035,23.8266297 18.9286643,23.9350649 18.462929,23.9350649 L18.462929,23.9350649 L6.47213596,23.9350649 C5.64370883,23.9350649 4.89370883,23.5992785 4.35081561,23.0563853 C3.80792239,22.5134921 3.47213596,21.7634921 3.47213596,20.9350649 C3.47213596,20.4693296 3.58057123,20.0099905 3.78885438,19.5934241 L3.78885438,19.5934241 L9.78425089,7.60263112 C10.1547348,6.86166338 10.7904815,6.34101124 11.5188492,6.09822202 Z" id="Triangle-Copy-2" transform="translate(12.467532, 12.467532) rotate(-90.000000) translate(-12.467532, -12.467532) "></path>
                    <path d="M34.5837842,6.09822202 C35.3121519,5.85543279 36.1331406,5.89050646 36.8741083,6.26099034 C37.4546905,6.55128144 37.925458,7.02204892 38.2157491,7.60263112 L38.2157491,7.60263112 L44.2111456,19.5934241 C44.5816295,20.3343919 44.6167032,21.1553805 44.3739139,21.8837482 C44.1311247,22.6121159 43.6104726,23.2478626 42.8695048,23.6183465 C42.4529385,23.8266297 41.9935993,23.9350649 41.527864,23.9350649 L41.527864,23.9350649 L29.537071,23.9350649 C28.7086439,23.9350649 27.9586439,23.5992785 27.4157507,23.0563853 C26.8728575,22.5134921 26.537071,21.7634921 26.537071,20.9350649 C26.537071,20.4693296 26.6455063,20.0099905 26.8537894,19.5934241 L26.8537894,19.5934241 L32.849186,7.60263112 C33.2196698,6.86166338 33.8554165,6.34101124 34.5837842,6.09822202 Z" id="Triangle-Copy-3" transform="translate(35.532468, 12.467532) rotate(-90.000000) translate(-35.532468, -12.467532) "></path>
                </g>
            </g>
        </g>
    </g>
</svg>