<?xml version="1.0" encoding="UTF-8"?>
<svg width="20px" height="29px" viewBox="0 0 20 29" version="1.1" xmlns="http://www.w3.org/2000/svg" xmlns:xlink="http://www.w3.org/1999/xlink">
    <title>16C3DA59-6077-438D-88F7-D01C268F7F2F</title>
    <g id="UI" stroke="none" stroke-width="1" fill="none" fill-rule="evenodd">
        <g id="Styleguide" transform="translate(-447.000000, -4962.000000)" stroke="#3CFF8F" stroke-width="1.5">
            <g id="Group-32-Copy" transform="translate(447.000000, 4962.000000)">
                <path d="M4.55087337,12.1455877 L12.3366038,14.9177701 C12.4060308,14.9430455 12.4607219,14.9977366 12.4859973,15.0671636 L12.4859973,15.0671636 L15.2581797,22.6818478 C15.2817963,22.7467182 15.2768831,22.8150198 15.2498482,22.873008 C15.2228133,22.9309962 15.1736567,22.9786709 15.1087863,23.0022875 C15.0535443,23.0223987 14.992982,23.0223987 14.93774,23.0022875 L14.93774,23.0022875 L7.32305582,20.230105 C7.25362881,20.2048296 7.1989378,20.1501386 7.17366238,20.0807116 L7.17366238,20.0807116 L4.40147993,12.4660274 C4.37786337,12.4011569 4.38277652,12.3328553 4.40981141,12.2748671 C4.43684631,12.2168789 4.48600295,12.1692042 4.55087337,12.1455877 L4.55087337,12.1455877 Z" id="Rectangle-Copy-6" transform="translate(9.829830, 17.573938) rotate(-405.000000) translate(-9.829830, -17.573938) "></path>
                <path d="M4.55087337,4.40147993 L12.3366038,7.17366238 C12.4060308,7.1989378 12.4607219,7.25362881 12.4859973,7.32305582 L12.4859973,7.32305582 L15.2581797,14.93774 C15.2817963,15.0026105 15.2768831,15.0709121 15.2498482,15.1289003 C15.2228133,15.1868885 15.1736567,15.2345632 15.1087863,15.2581797 C15.0535443,15.278291 14.992982,15.278291 14.93774,15.2581797 L14.93774,15.2581797 L7.32305582,12.4859973 C7.25362881,12.4607219 7.1989378,12.4060308 7.17366238,12.3366038 L7.17366238,12.3366038 L4.40147993,4.72191962 C4.37786337,4.6570492 4.38277652,4.58874756 4.40981141,4.53075938 C4.43684631,4.4727712 4.48600295,4.42509648 4.55087337,4.40147993 L4.55087337,4.40147993 Z" id="Rectangle" transform="translate(9.829830, 9.829830) rotate(-405.000000) translate(-9.829830, -9.829830) "></path>
            </g>
        </g>
    </g>
</svg>