<?xml version="1.0" encoding="UTF-8"?>
<svg width="16px" height="15px" viewBox="0 0 16 15" version="1.1" xmlns="http://www.w3.org/2000/svg" xmlns:xlink="http://www.w3.org/1999/xlink">
    <title>F2CE2854-8576-4389-914F-1FA1EDD5107A</title>
    <g id="UI" stroke="none" stroke-width="1" fill="none" fill-rule="evenodd">
        <g id="Styleguide" transform="translate(-910.000000, -12134.000000)" stroke="#6D6D6D" stroke-width="1.5">
            <g id="Group-37" transform="translate(372.000000, 11994.000000)">
                <g id="Group-4" transform="translate(6.000000, 128.000000)">
                    <path d="M539.288488,13.5736665 C539.834763,13.3915746 540.450505,13.4178798 541.006231,13.6957428 C541.441667,13.9134611 541.794743,14.2665367 542.012461,14.7019733 L542.012461,14.7019733 L546.158359,22.9937694 C546.436222,23.5494952 546.462527,24.1652367 546.280435,24.7115125 C546.098344,25.2577882 545.707854,25.7345983 545.152129,26.0124612 C544.839704,26.1686735 544.495199,26.25 544.145898,26.25 L544.145898,26.25 L535.854102,26.25 C535.232782,26.25 534.670282,25.9981602 534.263112,25.5909903 C533.855942,25.1838203 533.604102,24.6213203 533.604102,24 C533.604102,23.6506985 533.685428,23.3061941 533.841641,22.9937694 L533.841641,22.9937694 L537.987539,14.7019733 C538.265402,14.1462475 538.742212,13.7557584 539.288488,13.5736665 Z" id="Triangle-Copy-3" transform="translate(540.000000, 18.000000) scale(1, -1) rotate(-180.000000) translate(-540.000000, -18.000000) "></path>
                </g>
            </g>
        </g>
    </g>
</svg>