<?xml version="1.0" encoding="UTF-8"?>
<svg width="68px" height="68px" viewBox="0 0 42 42" version="1.1" xmlns="http://www.w3.org/2000/svg" xmlns:xlink="http://www.w3.org/1999/xlink">
    <title>436D31BF-DA5D-472F-817C-3883DEF7AE4F</title>
    <g id="UI" stroke="#3CFF8F" stroke-width="1" fill="none" fill-rule="evenodd">
        <g id="Preview" stroke="#3CFF8F" stroke-width="1"  transform="translate(-585.000000, -1234.000000)">
            <g id="Group-2" stroke="#3CFF8F" stroke-width="1"  transform="translate(0.000000, 1173.000000)">
                <g id="Group-46-Copy" transform="translate(545.000000, 41.000000)">
                    <g id="Group-44" stroke="#3CFF8F" stroke-width="1"  transform="translate(40.500000, 20.250000)">
                        <circle id="Oval" fill="#3CFF8F" opacity="0.104651163" cx="20.625" cy="20.625" r="20.625"></circle>
                        <path d="M22.5087722,15.8984527 C22.7515615,15.8175229 23.0252243,15.8292141 23.2722136,15.9527088 C23.465741,16.0494725 23.6226635,16.206395 23.7194272,16.3999224 L23.7194272,16.3999224 L28.7333592,26.4277864 C28.8568538,26.6747757 28.8685451,26.9484385 28.7876153,27.1912278 C28.7066856,27.434017 28.5331349,27.6459326 28.2861456,27.7694272 L28.2861456,27.7694272 L17.811068,27.875 C17.5349256,27.875 17.2849256,27.7630712 17.1039612,27.5821068 C16.9229968,27.4011424 16.811068,27.1511424 16.811068,26.875 L16.811068,26.875 L21.9305728,16.3999224 C22.0540674,16.1529331 22.265983,15.9793824 22.5087722,15.8984527 Z" id="Triangle-Copy-2" stroke="#3CFF8F" stroke-width="2" transform="translate(22.825000, 20.625000) scale(-1, 1) rotate(-90.000000) translate(-22.825000, -20.625000) "></path>
                    </g>
                </g>
            </g>
        </g>
    </g>
</svg>