<?xml version="1.0" encoding="UTF-8"?>
<svg width="19px" height="18px" viewBox="0 0 19 18" version="1.1" xmlns="http://www.w3.org/2000/svg" xmlns:xlink="http://www.w3.org/1999/xlink">
    <title>8C959C4D-4B74-4652-A31C-692C2191C153</title>
    <g id="UI" stroke="none" stroke-width="1" fill="none" fill-rule="evenodd">
        <g id="Styleguide" transform="translate(-389.000000, -4928.000000)" stroke="#6D6D6D" stroke-width="1.45">
            <g id="Asset-76" transform="translate(390.000000, 4929.000000)">
                <path d="M12.28,8.8817842e-16 L2.44,8.8817842e-16 C1.09242521,8.8817842e-16 0,1.09242521 0,2.44 L0,13.5 C0,14.8475748 1.09242521,15.94 2.44,15.94 L14.57,15.94 C15.2162124,15.94 15.8358127,15.6826161 16.2918147,15.2247376 C16.7478167,14.7668591 17.0026593,14.146207 17.0000206,13.5 L17.0000206,4.71 L12.28,8.8817842e-16 Z" id="Path"></path>
                <path d="M9.19,8.8817842e-16 L9.19,2.72 C9.21339764,3.30380401 8.77231625,3.80222598 8.19,3.85 L4.96,3.85 C4.37768375,3.80222598 3.93660236,3.30380401 3.96,2.72 L3.96,8.8817842e-16" id="Path"></path>
                <path d="M3.93,15.94 L3.93,9.83 C3.92193409,9.53823157 4.03015943,9.25521946 4.23084624,9.04327918 C4.43153305,8.83133891 4.70822565,8.70784889 5,8.7 L12,8.7 C12.2917743,8.70784889 12.5684669,8.83133891 12.7691538,9.04327918 C12.9698406,9.25521946 13.0780659,9.53823157 13.07,9.83 L13.07,15.94" id="Path"></path>
                <line x1="4.07" y1="11.79" x2="12.94" y2="11.79" id="Path" stroke-linecap="round" stroke-linejoin="round"></line>
            </g>
        </g>
    </g>
</svg>