<?xml version="1.0" encoding="UTF-8"?>
<svg width="24px" height="24px" viewBox="0 0 24 24" version="1.1" xmlns="http://www.w3.org/2000/svg" xmlns:xlink="http://www.w3.org/1999/xlink">
    <title>CE00AD42-6F7F-42A5-822D-86788E50D034</title>
    <g id="UI" stroke="none" stroke-width="1" fill="none" fill-rule="evenodd">
        <g id="Styleguide" transform="translate(-185.000000, -13644.000000)" stroke="#6D6D6D" stroke-width="1.5">
            <g id="Group-45" transform="translate(168.000000, 13077.000000)">
                <g transform="translate(-219.000000, 26.000000)" id="Setup-icon">
                    <g transform="translate(237.000000, 542.000000)">
                        <path d="M10.8161765,-2.81658889e-05 C11.9532604,-0.00569834159 12.9083633,0.853894207 13.0220588,1.98529412 C13.0476646,2.17807503 13.0476646,2.37339556 13.0220588,2.56617647 C13.2279412,2.61764706 13.4411765,2.67647059 13.6470588,2.74264706 C13.9393745,2.83511004 14.2265475,2.94310674 14.5073529,3.06617647 C14.6838235,3.14705882 14.8676471,3.22794118 15.0441176,3.32352941 C15.1493871,3.18268662 15.2730339,3.05656695 15.4117647,2.94852941 C15.8359608,2.61014439 16.3699989,2.4399852 16.9117647,2.47058824 C17.4658717,2.49374222 17.9909258,2.72476602 18.3823529,3.11764706 C18.7379438,3.47377283 18.9610709,3.94078288 19.0147059,4.44117647 C19.0761691,4.95480497 18.959359,5.4739609 18.6838235,5.91176471 C18.5899414,6.05920178 18.4788682,6.1949579 18.3529412,6.31617647 C18.4558824,6.47794118 18.5588235,6.64705882 18.6544118,6.81617647 C18.855086,7.18582832 19.0295352,7.56912538 19.1764706,7.96323529 C19.2352941,8.13235294 19.2867647,8.29411765 19.3382353,8.46323529 C19.4941441,8.46834794 19.6492322,8.48804167 19.8014706,8.52205882 C20.8023641,8.75858089 21.5069975,9.65538704 21.5000517,10.6838235 C21.5035639,11.7095166 20.7996729,12.6023307 19.8014706,12.8382353 C19.6492322,12.8722525 19.4941441,12.8919462 19.3382353,12.8970588 C19.2867647,13.0661765 19.2352941,13.2279412 19.1764706,13.3970588 C19.0295352,13.7911687 18.855086,14.1744658 18.6544118,14.5441176 C18.5588235,14.7132353 18.4558824,14.8823529 18.3529412,15.0441176 C18.4788682,15.1653362 18.5899414,15.3010923 18.6838235,15.4485294 C18.9511729,15.8760965 19.067659,16.3808699 19.0147059,16.8823529 C18.925686,17.6839154 18.4063241,18.3730027 17.6602948,18.6793803 C16.9142655,18.9857578 16.0605038,18.8605816 15.4338235,18.3529412 C15.2950927,18.2449036 15.171446,18.118784 15.0661765,17.9779412 C14.8897059,18.0735294 14.7058824,18.1544118 14.5294118,18.2352941 C14.2486063,18.3583638 13.9614333,18.4663605 13.6691176,18.5588235 C13.4632353,18.625 13.25,18.6838235 13.0441176,18.7352941 C13.0697234,18.928075 13.0697234,19.1233956 13.0441176,19.3161765 C13.0441176,20.5344517 12.0565105,21.5220588 10.8382353,21.5220588 C9.61996011,21.5220588 8.63235294,20.5344517 8.63235294,19.3161765 C8.6067472,19.1233956 8.6067472,18.928075 8.63235294,18.7352941 C8.42647059,18.6838235 8.21323529,18.625 8.00735294,18.5588235 C7.71503729,18.4663605 7.42786425,18.3583638 7.14705882,18.2352941 C6.97058824,18.1544118 6.78676471,18.0735294 6.61029412,17.9779412 C6.50502463,18.118784 6.3813779,18.2449036 6.24264706,18.3529412 C5.61596683,18.8605816 4.76220512,18.9857578 4.01617581,18.6793803 C3.2701465,18.3730027 2.7507846,17.6839154 2.66176471,16.8823529 C2.60881157,16.3808699 2.72529773,15.8760965 2.99264706,15.4485294 C3.08652923,15.3010923 3.19760241,15.1653362 3.32352941,15.0441176 C3.22058824,14.8823529 3.11764706,14.7132353 3.02205882,14.5441176 C2.82138464,14.1744658 2.64693534,13.7911687 2.5,13.3970588 C2.44117647,13.2279412 2.38970588,13.0661765 2.33823529,12.8970588 C2.18232649,12.8919462 2.02723839,12.8722525 1.875,12.8382353 C1.39100027,12.7212591 0.960814711,12.4439708 0.654411765,12.0514706 C0.0170056271,11.2483574 0.0170056271,10.1119367 0.654411765,9.30882353 C0.960814711,8.91632332 1.39100027,8.63903504 1.875,8.52205882 C2.02723839,8.48804167 2.18232649,8.46834794 2.33823529,8.46323529 C2.38970588,8.29411765 2.44117647,8.13235294 2.5,7.96323529 C2.64693534,7.56912538 2.82138464,7.18582832 3.02205882,6.81617647 C3.11764706,6.64705882 3.22058824,6.47794118 3.32352941,6.31617647 C3.19760241,6.1949579 3.08652923,6.05920178 2.99264706,5.91176471 C2.70783379,5.46675537 2.58814018,4.93594023 2.65441176,4.41176471 C2.70804677,3.91137112 2.9311738,3.44436106 3.28676471,3.08823529 C3.67819183,2.69535426 4.20324592,2.46433046 4.75735294,2.44117647 C5.30160312,2.40873341 5.8385859,2.57899624 6.26470588,2.91911765 C6.40343673,3.02715519 6.52708346,3.15327485 6.63235294,3.29411765 C6.80882353,3.19852941 6.99264706,3.11764706 7.16911765,3.03676471 C7.44992307,2.91369498 7.73709611,2.80569828 8.02941176,2.71323529 C8.23529412,2.64705882 8.44852941,2.58823529 8.65441176,2.53676471 C8.54254979,1.79050454 8.81991481,1.03884533 9.38970588,0.544117647 C9.78527225,0.198734686 10.2910779,0.0057985116 10.8161765,-2.81658889e-05 L10.8161765,-2.81658889e-05 Z" id="Combined-Shape"></path>
                        <circle id="Oval" cx="10.8161765" cy="10.6470588" r="2.66176471"></circle>
                    </g>
                </g>
            </g>
        </g>
    </g>
</svg>