<?xml version="1.0" encoding="UTF-8"?>
<svg width="123px" height="106px" viewBox="0 0 123 106" version="1.1" xmlns="http://www.w3.org/2000/svg" xmlns:xlink="http://www.w3.org/1999/xlink">
    <title>A8F4A5E9-58A0-4A55-8BC7-9DEC28ABCDCB</title>
    <g id="UI" stroke="none" stroke-width="1" fill="none" fill-rule="evenodd" stroke-linecap="round">
        <g id="Start-Workout" transform="translate(-274.000000, -266.000000)" stroke="#6D6D6D" stroke-width="1.5">
            <g id="Group-6" transform="translate(253.941176, 227.000000)">
                <g id="Group-5" transform="translate(-0.000000, 0.000000)">
                    <g id="Group" transform="translate(21.058824, 40.000000)">
                        <line x1="3.62" y1="0.5" x2="117.06" y2="0.5" id="Path"></line>
                        <line x1="7.69" y1="0.5" x2="7.69" y2="104.05" id="Path"></line>
                        <line x1="0" y1="104.05" x2="15.38" y2="104.05" id="Path"></line>
                        <line x1="112.99" y1="0.5" x2="112.99" y2="104.05" id="Path"></line>
                        <line x1="105.31" y1="104.05" x2="120.68" y2="104.05" id="Path"></line>
                        <path d="M15.06,0.5 L105.62,0.5 L105.62,81.43 C105.62,83.5119494 104.792949,85.5086277 103.320788,86.9807882 C101.848628,88.4529488 99.8519494,89.28 97.77,89.28 L22.91,89.28 C18.5745647,89.28 15.06,85.7654353 15.06,81.43 L15.06,0.5 L15.06,0.5 Z" id="Path"></path>
                        <line x1="7.99" y1="8.53" x2="14.68" y2="8.53" id="Path"></line>
                        <line x1="7.99" y1="16.56" x2="14.68" y2="16.56" id="Path"></line>
                        <line x1="7.99" y1="24.6" x2="14.68" y2="24.6" id="Path"></line>
                        <line x1="7.99" y1="32.63" x2="14.68" y2="32.63" id="Path"></line>
                        <line x1="7.99" y1="40.66" x2="14.68" y2="40.66" id="Path"></line>
                        <line x1="7.99" y1="48.69" x2="14.68" y2="48.69" id="Path"></line>
                        <line x1="7.99" y1="56.72" x2="14.68" y2="56.72" id="Path"></line>
                        <line x1="7.99" y1="64.75" x2="14.68" y2="64.75" id="Path"></line>
                        <line x1="7.99" y1="72.79" x2="14.68" y2="72.79" id="Path"></line>
                        <line x1="105.91" y1="8.53" x2="112.61" y2="8.53" id="Path"></line>
                        <line x1="105.91" y1="16.56" x2="112.61" y2="16.56" id="Path"></line>
                        <line x1="105.91" y1="24.6" x2="112.61" y2="24.6" id="Path"></line>
                        <line x1="105.91" y1="32.63" x2="112.61" y2="32.63" id="Path"></line>
                        <line x1="105.91" y1="40.66" x2="112.61" y2="40.66" id="Path"></line>
                        <line x1="105.91" y1="48.69" x2="112.61" y2="48.69" id="Path"></line>
                        <line x1="105.91" y1="56.72" x2="112.61" y2="56.72" id="Path"></line>
                        <line x1="105.91" y1="64.75" x2="112.61" y2="64.75" id="Path"></line>
                        <line x1="105.91" y1="72.79" x2="112.61" y2="72.79" id="Path"></line>
                        <line x1="26.29" y1="10.5" x2="26.29" y2="15.26" id="Path"></line>
                        <line x1="23.91" y1="12.88" x2="28.66" y2="12.88" id="Path"></line>
                        <line x1="94.39" y1="10.5" x2="94.39" y2="15.26" id="Path"></line>
                        <line x1="92.02" y1="12.88" x2="96.77" y2="12.88" id="Path"></line>
                        <line x1="26.29" y1="75.99" x2="26.29" y2="80.75" id="Path"></line>
                        <line x1="23.91" y1="78.37" x2="28.66" y2="78.37" id="Path"></line>
                        <line x1="94.39" y1="75.99" x2="94.39" y2="80.75" id="Path"></line>
                        <line x1="92.02" y1="78.37" x2="96.77" y2="78.37" id="Path"></line>
                        <path d="M53.86,32.3 L47.64,32.3 C46.6497796,32.3 45.8455012,33.0997949 45.84,34.09 L45.84,39.46" id="Path"></path>
                        <path d="M74.84,39.46 L74.84,34.09 C74.84,33.6135248 74.6500466,33.1567092 74.3121906,32.8207302 C73.9743345,32.4847511 73.5164678,32.2973381 73.04,32.299972 L66.82,32.299972" id="Path"></path>
                        <path d="M45.84,48.06 L45.84,53.43 C45.8454648,54.4218401 46.6481599,55.2245352 47.64,55.23 L53.86,55.23" id="Path"></path>
                        <path d="M66.82,55.23 L73.04,55.23 C74.0341125,55.23 74.84,54.4241125 74.84,53.43 L74.84,48.06" id="Path"></path>
                    </g>
                </g>
            </g>
        </g>
    </g>
</svg>