<svg id="Layer_1" data-name="Layer 1" xmlns="http://www.w3.org/2000/svg" viewBox="0 0 476.2 476.2"><defs><style>.cls-1{fill:#1a1a1a;}.cls-2{fill:#fff;}</style></defs><rect class="cls-1" x="28.85" y="28.86" width="43.3" height="43.29"/><path class="cls-1" d="M66.4,156.4v101h101v-101ZM153,243H80.83V170.83H153Z" transform="translate(-66.4 -156.4)"/><polygon class="cls-1" points="216.46 14.43 216.46 28.86 230.89 28.86 230.89 57.72 173.16 57.72 173.16 43.29 158.72 43.29 158.72 57.72 129.87 57.72 129.87 43.29 115.44 43.29 115.44 28.86 129.87 28.86 129.87 14.43 115.44 14.43 115.44 0 158.72 0 158.72 14.43 173.16 14.43 173.16 0 187.59 0 187.59 14.43 202.02 14.43 202.02 0 245.31 0 245.31 14.43 216.46 14.43"/><polygon class="cls-1" points="331.9 57.72 331.9 101.01 317.46 101.01 317.46 86.58 303.03 86.58 303.03 101.01 288.61 101.01 288.61 57.72 274.18 57.72 274.18 101.01 288.61 101.01 288.61 115.44 259.74 115.44 259.74 86.58 245.31 86.58 245.31 101.01 230.89 101.01 230.89 86.58 216.46 86.58 216.46 72.15 245.31 72.15 245.31 43.29 274.18 43.29 274.18 28.86 259.74 28.86 259.74 0 317.46 0 317.46 14.43 303.03 14.43 303.03 28.86 288.61 28.86 288.61 43.29 303.03 43.29 303.03 28.86 317.46 28.86 317.46 57.72 303.03 57.72 303.03 72.15 317.46 72.15 317.46 57.72 331.9 57.72"/><rect class="cls-1" x="404.05" y="28.86" width="43.28" height="43.29"/><path class="cls-1" d="M441.58,156.4v101h101v-101ZM528.17,243H456V170.83h72.14Z" transform="translate(-66.4 -156.4)"/><rect class="cls-2" x="28.85" y="28.86" width="43.3" height="43.29"/><polygon class="cls-1" points="346.33 14.43 360.76 14.43 360.76 43.29 331.9 43.29 331.9 28.86 346.33 28.86 346.33 14.43"/><rect class="cls-2" x="404.05" y="28.86" width="43.28" height="43.29"/><rect class="cls-1" x="28.85" y="28.86" width="43.3" height="43.29"/><rect class="cls-2" x="288.61" y="28.86" width="14.43" height="14.44"/><rect class="cls-1" x="404.05" y="28.86" width="43.28" height="43.29"/><rect class="cls-1" x="115.44" y="57.72" width="14.43" height="14.43"/><rect class="cls-2" x="129.87" y="57.72" width="28.85" height="14.43"/><polygon class="cls-1" points="187.59 129.87 187.59 158.73 202.02 158.73 202.02 173.16 173.16 173.16 173.16 187.59 158.72 187.59 158.72 158.73 144.31 158.73 144.31 144.3 158.72 144.3 158.72 115.44 115.44 115.44 115.44 86.58 129.87 86.58 129.87 101.01 144.31 101.01 144.31 86.58 129.87 86.58 129.87 72.15 158.72 72.15 158.72 57.72 173.16 57.72 173.16 72.15 202.02 72.15 202.02 86.58 187.59 86.58 187.59 101.01 173.16 101.01 173.16 86.58 158.72 86.58 158.72 101.01 173.16 101.01 173.16 115.44 202.02 115.44 202.02 86.58 216.46 86.58 216.46 129.87 187.59 129.87"/><rect class="cls-2" x="274.18" y="57.72" width="14.43" height="43.29"/><rect class="cls-2" x="303.04" y="57.72" width="14.43" height="14.43"/><rect class="cls-1" x="346.33" y="57.72" width="14.43" height="14.43"/><rect class="cls-2" x="129.87" y="86.58" width="14.44" height="14.43"/><rect class="cls-2" x="158.72" y="86.58" width="14.44" height="14.43"/><polygon class="cls-2" points="187.59 86.58 202.02 86.58 202.02 115.44 173.16 115.44 173.16 101.01 187.59 101.01 187.59 86.58"/><polygon class="cls-2" points="216.46 86.58 230.89 86.58 230.89 101.01 245.31 101.01 245.31 86.58 259.74 86.58 259.74 115.44 245.31 115.44 245.31 144.3 230.89 144.3 230.89 129.87 216.46 129.87 216.46 86.58"/><rect class="cls-1" x="346.33" y="86.58" width="14.43" height="43.3"/><polygon class="cls-1" points="86.59 158.73 86.59 173.16 129.87 173.16 129.87 187.59 115.44 187.59 115.44 202.02 129.87 202.02 129.87 216.46 86.59 216.46 86.59 202.02 101 202.02 101 187.59 86.59 187.59 86.59 202.02 72.15 202.02 72.15 187.59 57.72 187.59 57.72 173.16 28.85 173.16 28.85 187.59 14.43 187.59 14.43 202.02 57.72 202.02 57.72 216.46 72.15 216.46 72.15 245.31 57.72 245.31 57.72 230.89 28.85 230.89 28.85 216.46 0 216.46 0 158.73 28.85 158.73 28.85 129.87 43.29 129.87 43.29 158.73 72.15 158.73 72.15 144.3 57.72 144.3 57.72 129.87 72.15 129.87 72.15 115.44 101 115.44 101 129.87 86.59 129.87 86.59 144.3 129.87 144.3 129.87 158.73 86.59 158.73"/><polygon class="cls-1" points="245.31 115.44 259.74 115.44 259.74 129.87 274.18 129.87 274.18 144.3 288.61 144.3 288.61 158.74 317.46 158.74 317.46 187.59 303.04 187.59 303.04 173.16 274.18 173.16 274.18 187.59 259.74 187.59 259.74 173.16 245.31 173.16 245.31 158.74 259.74 158.74 259.74 144.3 245.31 144.3 245.31 115.44"/><polygon class="cls-2" points="259.74 115.44 288.61 115.44 288.61 144.3 274.18 144.3 274.18 129.87 259.74 129.87 259.74 115.44"/><polygon class="cls-1" points="288.61 115.44 303.04 115.44 303.04 129.87 317.46 129.87 317.46 115.44 331.9 115.44 331.9 129.87 346.33 129.87 346.33 144.3 331.9 144.3 331.9 158.74 317.46 158.74 317.46 144.3 288.61 144.3 288.61 115.44"/><rect class="cls-1" x="375.18" y="115.44" width="14.44" height="14.43"/><polygon class="cls-1" points="404.05 115.44 418.48 115.44 418.48 158.74 389.63 158.74 389.63 129.87 404.05 129.87 404.05 115.44"/><rect class="cls-1" x="432.91" y="115.44" width="14.43" height="28.86"/><rect class="cls-1" x="461.77" y="115.44" width="14.43" height="14.43"/><rect class="cls-1" y="129.87" width="14.43" height="14.43"/><rect class="cls-1" x="129.87" y="129.87" width="14.44" height="14.43"/><polygon class="cls-1" points="216.46 129.87 230.89 129.87 230.89 144.3 245.31 144.3 245.31 158.74 216.46 158.74 216.46 129.87"/><rect class="cls-2" x="245.31" y="144.3" width="14.43" height="14.43"/><rect class="cls-2" x="288.61" y="144.3" width="28.85" height="14.43"/><rect class="cls-1" x="360.76" y="144.3" width="14.43" height="14.43"/><polygon class="cls-1" points="447.33 144.3 461.77 144.3 461.77 158.74 476.2 158.74 476.2 173.16 432.9 173.16 432.9 187.59 461.77 187.59 461.77 216.46 447.33 216.46 447.33 230.89 432.9 230.89 432.9 216.46 404.05 216.46 404.05 230.89 418.48 230.89 418.48 245.31 389.63 245.31 389.63 230.89 375.18 230.89 375.18 216.46 360.76 216.46 360.76 202.02 375.18 202.02 375.18 173.16 418.48 173.16 418.48 158.74 447.33 158.74 447.33 144.3"/><polygon class="cls-1" points="216.46 173.16 245.31 173.16 245.31 187.59 259.74 187.59 259.74 202.02 274.18 202.02 274.18 216.46 230.89 216.46 230.89 187.59 216.46 187.59 216.46 173.16"/><rect class="cls-2" x="245.31" y="173.16" width="14.43" height="14.43"/><rect class="cls-1" x="331.91" y="173.16" width="28.85" height="28.86"/><rect class="cls-2" x="86.59" y="187.59" width="14.41" height="14.43"/><rect class="cls-2" x="259.74" y="187.59" width="14.44" height="14.43"/><rect class="cls-1" x="274.18" y="187.59" width="14.43" height="14.43"/><polygon class="cls-1" points="144.31 202.02 202.02 202.02 202.02 216.46 216.46 216.46 216.46 230.89 173.16 230.89 173.16 245.31 158.72 245.31 158.72 259.75 173.16 259.75 173.16 274.17 129.87 274.17 129.87 259.75 144.31 259.75 144.31 245.31 129.87 245.31 129.87 230.89 144.31 230.89 144.31 202.02"/><rect class="cls-1" x="288.61" y="202.02" width="14.43" height="28.86"/><polygon class="cls-2" points="404.05 216.46 432.9 216.46 432.9 230.89 447.33 230.89 447.33 245.31 418.48 245.31 418.48 230.89 404.05 230.89 404.05 216.46"/><rect class="cls-2" x="447.33" y="216.46" width="14.44" height="14.43"/><polygon class="cls-1" points="476.2 216.46 476.2 274.17 461.77 274.17 461.77 245.31 447.33 245.31 447.33 230.89 461.77 230.89 461.77 216.46 476.2 216.46"/><rect class="cls-1" x="86.59" y="230.89" width="14.41" height="14.43"/><polygon class="cls-1" points="216.46 230.89 230.89 230.89 230.89 245.31 245.31 245.31 245.31 259.75 230.89 259.75 230.89 274.17 216.46 274.17 216.46 288.6 187.59 288.6 187.59 245.31 202.02 245.31 202.02 259.75 216.46 259.75 216.46 230.89"/><rect class="cls-1" x="245.31" y="230.89" width="14.43" height="14.43"/><rect class="cls-1" x="14.43" y="245.31" width="14.43" height="14.44"/><rect class="cls-1" x="101" y="245.31" width="28.87" height="14.44"/><rect class="cls-2" x="129.87" y="245.31" width="14.44" height="14.44"/><rect class="cls-1" x="274.18" y="245.31" width="28.85" height="14.44"/><rect class="cls-1" x="331.91" y="245.31" width="14.43" height="28.86"/><polygon class="cls-1" points="418.48 259.75 418.48 274.17 404.05 274.17 404.05 288.6 389.63 288.6 389.63 274.17 375.18 274.17 375.18 288.6 360.76 288.6 360.76 259.75 375.18 259.75 375.18 245.31 389.63 245.31 389.63 259.75 418.48 259.75"/><rect class="cls-2" x="389.63" y="245.31" width="28.85" height="14.44"/><rect class="cls-1" x="418.48" y="245.31" width="28.85" height="14.44"/><polygon class="cls-1" points="0 259.75 14.43 259.75 14.43 274.17 28.85 274.17 28.85 288.6 14.43 288.6 14.43 346.33 28.85 346.33 28.85 360.76 0 360.76 0 259.75"/><rect class="cls-2" x="14.43" y="259.75" width="14.43" height="14.43"/><rect class="cls-1" x="28.85" y="259.75" width="28.87" height="14.43"/><rect class="cls-1" x="72.15" y="259.75" width="28.85" height="14.43"/><rect class="cls-2" x="101" y="259.75" width="28.87" height="14.43"/><rect class="cls-1" x="259.74" y="259.75" width="14.44" height="14.43"/><polygon class="cls-1" points="101 274.17 129.87 274.17 129.87 288.6 115.44 288.6 115.44 303.04 72.15 303.04 72.15 317.46 57.72 317.46 57.72 303.04 43.3 303.04 43.3 288.6 101 288.6 101 274.17"/><rect class="cls-1" x="230.89" y="274.17" width="28.85" height="28.86"/><polygon class="cls-1" points="317.46 274.17 331.9 274.17 331.9 317.46 317.46 317.46 317.46 331.9 288.61 331.9 288.61 317.46 303.04 317.46 303.04 303.04 317.46 303.04 317.46 274.17"/><polygon class="cls-2" points="375.18 274.17 389.63 274.17 389.63 288.6 404.05 288.6 404.05 303.04 360.76 303.04 360.76 288.6 375.18 288.6 375.18 274.17"/><rect class="cls-2" x="404.05" y="274.17" width="14.43" height="14.43"/><rect class="cls-1" x="418.48" y="274.17" width="28.85" height="14.43"/><polygon class="cls-1" points="158.72 288.6 173.16 288.6 173.16 303.04 230.89 303.04 230.89 317.46 202.02 317.46 202.02 331.9 187.59 331.9 187.59 317.46 173.16 317.46 173.16 346.33 158.72 346.33 158.72 360.76 144.31 360.76 144.31 375.19 115.44 375.19 115.44 360.76 129.87 360.76 129.87 331.9 144.31 331.9 144.31 303.04 158.72 303.04 158.72 288.6"/><polygon class="cls-1" points="274.18 288.6 303.04 288.6 303.04 303.04 288.61 303.04 288.61 317.46 259.74 317.46 259.74 303.04 274.18 303.04 274.18 288.6"/><rect class="cls-1" x="346.33" y="288.6" width="14.43" height="14.43"/><polygon class="cls-1" points="432.9 346.33 432.9 375.19 418.48 375.19 418.48 389.62 432.9 389.62 432.9 375.19 461.77 375.19 461.77 389.62 447.33 389.62 447.33 404.05 418.48 404.05 418.48 476.2 404.05 476.2 404.05 461.77 375.18 461.77 375.18 447.34 404.05 447.34 404.05 432.91 389.63 432.91 389.63 418.48 375.18 418.48 375.18 447.34 331.9 447.34 331.9 432.91 346.33 432.91 346.33 404.05 331.9 404.05 331.9 375.19 317.46 375.19 317.46 360.76 346.33 360.76 346.33 346.33 360.76 346.33 360.76 331.9 375.18 331.9 375.18 317.47 360.76 317.47 360.76 303.03 404.05 303.03 404.05 288.6 418.48 288.6 418.48 303.03 447.33 303.03 447.33 288.6 461.77 288.6 461.77 331.9 476.2 331.9 476.2 346.33 432.9 346.33 432.9 331.9 447.33 331.9 447.33 317.47 404.05 317.47 404.05 331.9 389.63 331.9 389.63 346.33 432.9 346.33"/><rect class="cls-2" x="418.48" y="288.6" width="28.85" height="14.43"/><rect class="cls-1" x="28.85" y="303.03" width="14.44" height="14.43"/><polygon class="cls-2" points="230.89 303.04 259.74 303.04 259.74 317.46 288.61 317.46 288.61 331.9 274.18 331.9 274.18 346.33 259.74 346.33 259.74 331.9 245.31 331.9 245.31 317.46 230.89 317.46 230.89 303.04"/><rect class="cls-2" x="288.61" y="303.03" width="14.43" height="14.43"/><rect class="cls-1" x="72.15" y="317.47" width="28.85" height="14.43"/><rect class="cls-1" x="230.89" y="317.47" width="14.43" height="14.43"/><rect class="cls-2" x="317.46" y="317.47" width="14.44" height="14.43"/><polygon class="cls-1" points="331.9 317.46 360.76 317.46 360.76 331.9 346.33 331.9 346.33 346.33 317.46 346.33 317.46 331.9 331.9 331.9 331.9 317.46"/><rect class="cls-2" x="360.76" y="317.47" width="14.43" height="14.43"/><polygon class="cls-2" points="404.05 317.46 447.33 317.46 447.33 331.9 432.9 331.9 432.9 346.33 389.63 346.33 389.63 331.9 404.05 331.9 404.05 317.46"/><polygon class="cls-1" points="28.85 331.9 57.72 331.9 57.72 346.33 101 346.33 101 360.76 43.3 360.76 43.3 346.33 28.85 346.33 28.85 331.9"/><rect class="cls-1" x="101" y="331.9" width="14.44" height="14.43"/><rect class="cls-1" x="216.46" y="331.9" width="14.43" height="14.43"/><polygon class="cls-2" points="230.89 331.9 245.31 331.9 245.31 360.76 303.04 360.76 303.04 346.33 288.61 346.33 288.61 331.9 317.46 331.9 317.46 346.33 346.33 346.33 346.33 360.76 317.46 360.76 317.46 375.19 303.04 375.19 303.04 389.62 317.46 389.62 317.46 375.19 331.9 375.19 331.9 404.05 346.33 404.05 346.33 432.91 331.9 432.91 331.9 418.48 317.46 418.48 317.46 404.05 288.61 404.05 288.61 375.19 259.74 375.19 259.74 389.62 245.31 389.62 245.31 404.05 230.89 404.05 230.89 389.62 216.46 389.62 216.46 346.33 230.89 346.33 230.89 331.9"/><polygon class="cls-1" points="245.31 331.9 259.74 331.9 259.74 346.33 274.18 346.33 274.18 331.9 288.61 331.9 288.61 346.33 303.04 346.33 303.04 360.76 245.31 360.76 245.31 331.9"/><rect class="cls-2" x="346.33" y="331.9" width="14.43" height="14.43"/><polygon class="cls-1" points="274.18 447.34 274.18 461.77 259.74 461.77 259.74 476.2 245.31 476.2 245.31 447.34 230.89 447.34 230.89 461.77 216.46 461.77 216.46 432.91 202.02 432.91 202.02 389.62 187.59 389.62 187.59 360.76 202.02 360.76 202.02 346.33 216.46 346.33 216.46 389.62 230.89 389.62 230.89 404.05 216.46 404.05 216.46 418.48 230.89 418.48 230.89 404.05 245.31 404.05 245.31 389.62 259.74 389.62 259.74 418.48 245.31 418.48 245.31 432.91 259.74 432.91 259.74 447.34 274.18 447.34"/><rect class="cls-2" x="360.76" y="360.76" width="43.3" height="43.29"/><rect class="cls-1" x="461.77" y="360.76" width="14.43" height="14.43"/><rect class="cls-1" y="375.19" width="101" height="101.01"/><polygon class="cls-1" points="187.59 389.62 187.59 404.05 158.72 404.05 158.72 375.19 173.16 375.19 173.16 389.62 187.59 389.62"/><polygon class="cls-1" points="331.9 418.48 331.9 432.91 303.03 432.91 303.03 461.77 288.61 461.77 288.61 418.48 274.18 418.48 274.18 389.62 259.74 389.62 259.74 375.19 288.61 375.19 288.61 404.05 317.46 404.05 317.46 418.48 331.9 418.48"/><rect class="cls-1" x="303.04" y="375.19" width="14.43" height="14.43"/><rect class="cls-1" x="375.18" y="375.19" width="14.44" height="14.43"/><rect class="cls-2" x="418.48" y="375.19" width="14.43" height="14.43"/><rect class="cls-2" x="461.77" y="375.19" width="14.43" height="14.43"/><rect class="cls-2" x="14.43" y="389.62" width="72.17" height="72.15"/><rect class="cls-1" x="115.44" y="389.62" width="14.43" height="14.43"/><polygon class="cls-2" points="447.33 389.62 461.77 389.62 461.77 404.05 476.2 404.05 476.2 432.91 461.77 432.91 461.77 418.48 432.9 418.48 432.9 476.2 418.48 476.2 418.48 404.05 447.33 404.05 447.33 389.62"/><rect class="cls-1" x="461.77" y="389.62" width="14.43" height="14.43"/><rect class="cls-1" x="28.85" y="404.05" width="43.3" height="43.29"/><polygon class="cls-1" points="202.02 432.91 202.02 461.77 187.59 461.77 187.59 476.2 173.16 476.2 173.16 461.77 158.72 461.77 158.72 447.34 144.31 447.34 144.31 432.91 129.87 432.91 129.87 418.48 144.31 418.48 144.31 404.05 158.72 404.05 158.72 432.91 173.16 432.91 173.16 447.34 187.59 447.34 187.59 432.91 202.02 432.91"/><rect class="cls-2" x="216.46" y="404.05" width="14.43" height="14.43"/><polygon class="cls-1" points="447.33 447.34 447.33 461.77 461.77 461.77 461.77 476.2 432.9 476.2 432.9 418.48 461.77 418.48 461.77 432.91 476.2 432.91 476.2 447.34 447.33 447.34"/><rect class="cls-1" x="129.87" y="461.77" width="28.85" height="14.43"/><rect class="cls-1" x="274.18" y="461.77" width="14.43" height="14.43"/><rect class="cls-1" x="303.03" y="461.77" width="57.73" height="14.43"/></svg>